:FULLY-SPECIFIED
:FORCE-ALL-JOINTS-BE-3DOF
:DEGREES
781
root 1.59805 16.333 18.6912 -12.2402 77.4337 341.488
lfemur -36.9161 13.4607 -14.0718
ltibia 50.3045 0 0
lfoot -21.9414 20.9429 0
ltoes 16.2572 0 0
rfemur -15.1321 -22.3487 21.7982
rtibia 50.7892 0 0
rfoot -18.5838 -32.7082 0
rtoes -25.8057 0 0
lowerback 1.12515 4.68093 -0.83463
upperback -0.87914 6.2225 -3.79588
thorax -1.19474 3.12366 -3.55116
lowerneck -5.30437 -6.56748 -0.622689
upperneck -2.46208 -8.63973 5.10755
head 0.387816 -4.24894 1.50201
lclavicle 6.61366e-015 4.66318e-016 0
lhumerus -55.7354 -11.5309 95.2217
lradius 70.6406 0 0
lwrist 12.8841 0 0
lhand -21.0685 -4.95832 0
lfingers 7.12502 0 0
lthumb 5.30797 24.9489 0
rclavicle 6.61366e-015 4.66318e-016 0
rhumerus -31.4254 48.467 -113.197
rradius 79.811 0 0
rwrist 5.96075 0 0
rhand -23.6089 -20.0069 0
rfingers 7.12502 0 0
rthumb 2.85468 -769.959 0
782
root 1.57528 16.3162 18.8197 -10.3754 77.2715 343.235
lfemur -37.0628 13.5129 -13.8726
ltibia 50.0714 0 0
lfoot -21.8861 21.2282 0
ltoes 16.3528 0 0
rfemur -14.6314 -21.8335 22.077
rtibia 49.5402 0 0
rfoot -19.1289 -32.8524 0
rtoes -26.379 0 0
lowerback 1.09533 4.69144 -0.746042
upperback -0.860034 6.23688 -3.76756
thorax -1.1494 3.1314 -3.56521
lowerneck -5.27968 -6.47622 -0.557353
upperneck -2.43094 -8.52127 5.07081
head 0.389365 -4.18958 1.48352
lclavicle 7.17276e-015 8.96237e-016 0
lhumerus -55.6975 -11.406 95.5765
lradius 70.5886 0 0
lwrist 12.8623 0 0
lhand -20.8391 -4.8144 0
lfingers 7.12502 0 0
lthumb 5.52923 25.081 0
rclavicle 7.17276e-015 8.96237e-016 0
rhumerus -32.0953 48.7897 -113.837
rradius 79.5051 0 0
rwrist 5.96593 0 0
rhand -23.2844 -19.9231 0
rfingers 7.12502 0 0
rthumb 3.16772 -769.862 0
783
root 1.55561 16.3018 18.9472 -8.63633 76.8501 344.835
lfemur -37.2025 13.512 -13.6232
ltibia 49.7466 0 0
lfoot -21.7927 21.4935 0
ltoes 16.4493 0 0
rfemur -14.073 -21.2753 22.3385
rtibia 48.2913 0 0
rfoot -19.6446 -32.9258 0
rtoes -26.9129 0 0
lowerback 1.05668 4.71329 -0.638961
upperback -0.844025 6.26671 -3.7293
thorax -1.10095 3.14679 -3.57916
lowerneck -5.25732 -6.37675 -0.48525
upperneck -2.39801 -8.3925 5.02474
head 0.391192 -4.12531 1.46114
lclavicle 7.64488e-015 1.29073e-015 0
lhumerus -55.6668 -11.2666 95.8849
lradius 70.4804 0 0
lwrist 12.8561 0 0
lhand -20.5945 -4.65131 0
lfingers 7.12502 0 0
lthumb 5.76518 25.232 0
rclavicle 7.64488e-015 1.29073e-015 0
rhumerus -32.6781 49.0952 -114.426
rradius 79.1983 0 0
rwrist 5.9409 0 0
rhand -22.9348 -19.8498 0
rfingers 7.12502 0 0
rthumb 3.50486 -769.773 0
784
root 1.53895 16.2897 19.0737 -7.01879 76.1824 346.293
lfemur -37.3349 13.4603 -13.3266
ltibia 49.3347 0 0
lfoot -21.6627 21.7386 0
ltoes 16.5465 0 0
rfemur -13.4614 -20.6764 22.5829
rtibia 47.0443 0 0
rfoot -20.1311 -32.9314 0
rtoes -27.4084 0 0
lowerback 1.00991 4.74579 -0.51452
upperback -0.830895 6.31105 -3.68162
thorax -1.04961 3.16936 -3.59292
lowerneck -5.23723 -6.26957 -0.406768
upperneck -2.36326 -8.25404 4.96982
head 0.393338 -4.05643 1.43508
lclavicle 8.03401e-015 1.65075e-015 0
lhumerus -55.6427 -11.1136 96.1485
lradius 70.3189 0 0
lwrist 12.8649 0 0
lhand -20.3353 -4.47008 0
lfingers 7.12502 0 0
lthumb 6.0152 25.4006 0
rclavicle 8.03401e-015 1.65075e-015 0
rhumerus -33.1777 49.3832 -114.966
rradius 78.8906 0 0
rwrist 5.88715 0 0
rhand -22.5618 -19.7867 0
rfingers 7.12502 0 0
rthumb 3.86461 -769.693 0
785
root 1.5252 16.2797 19.1992 -5.51875 75.2809 347.614
lfemur -37.4598 13.3606 -12.9857
ltibia 48.8407 0 0
lfoot -21.4981 21.9636 0
ltoes 16.6444 0 0
rfemur -12.801 -20.0395 22.8107
rtibia 45.8009 0 0
rfoot -20.5889 -32.8722 0
rtoes -27.8664 0 0
lowerback 0.95568 4.78824 -0.373852
upperback -0.820426 6.36892 -3.62504
thorax -0.995654 3.19864 -3.60639
lowerneck -5.21931 -6.15516 -0.322296
upperneck -2.32666 -8.10652 4.90657
head 0.395839 -3.98325 1.40554
lclavicle 8.34418e-015 1.97729e-015 0
lhumerus -55.6246 -10.9482 96.3691
lradius 70.1068 0 0
lwrist 12.888 0 0
lhand -20.0622 -4.27176 0
lfingers 7.12502 0 0
lthumb 6.27867 25.586 0
rclavicle 8.34418e-015 1.97729e-015 0
rhumerus -33.5982 49.6532 -115.456
rradius 78.5821 0 0
rwrist 5.80616 0 0
rhand -22.1668 -19.7335 0
rfingers 7.12502 0 0
rthumb 4.24547 -769.621 0
786
root 1.51428 16.2717 19.3238 -4.13217 74.1585 348.805
lfemur -37.5771 13.2154 -12.6034
ltibia 48.2694 0 0
lfoot -21.3007 22.1682 0
ltoes 16.743 0 0
rfemur -12.096 -19.3672 23.0219
rtibia 44.563 0 0
rfoot -21.0184 -32.7511 0
rtoes -28.2879 0 0
lowerback 0.894692 4.83992 -0.218089
upperback -0.812402 6.43937 -3.56004
thorax -0.939307 3.23413 -3.61947
lowerneck -5.20352 -6.03403 -0.232221
upperneck -2.28816 -7.95059 4.83548
head 0.398735 -3.90605 1.37273
lclavicle 8.57941e-015 2.2713e-015 0
lhumerus -55.6118 -10.7715 96.5484
lradius 69.8467 0 0
lwrist 12.9249 0 0
lhand -19.7758 -4.05737 0
lfingers 7.12502 0 0
lthumb 6.55498 25.7869 0
rclavicle 8.57941e-015 2.2713e-015 0
rhumerus -33.9434 49.9052 -115.899
rradius 78.2728 0 0
rwrist 5.69941 0 0
rhand -21.7515 -19.69 0
rfingers 7.12502 0 0
rthumb 4.64594 -769.557 0
787
root 1.50609 16.2657 19.4476 -2.85497 72.8279 349.87
lfemur -37.6864 13.0274 -12.1827
ltibia 47.6255 0 0
lfoot -21.0721 22.3525 0
ltoes 16.8421 0 0
rfemur -11.3508 -18.662 23.2169
rtibia 43.3322 0 0
rfoot -21.4199 -32.5711 0
rtoes -28.6736 0 0
lowerback 0.827628 4.90015 -0.0483657
upperback -0.806603 6.52143 -3.48716
thorax -0.88082 3.27538 -3.63206
lowerneck -5.18977 -5.90665 -0.136933
upperneck -2.24774 -7.78686 4.75706
head 0.402064 -3.82515 1.33686
lclavicle 8.7437e-015 2.53376e-015 0
lhumerus -55.6036 -10.5845 96.6882
lradius 69.5415 0 0
lwrist 12.9749 0 0
lhand -19.4768 -3.82794 0
lfingers 7.12502 0 0
lthumb 6.84351 26.0025 0
rclavicle 8.7437e-015 2.53376e-015 0
rhumerus -34.2173 50.1387 -116.295
rradius 77.9626 0 0
rwrist 5.56839 0 0
rhand -21.3175 -19.6558 0
rfingers 7.12502 0 0
rthumb 5.06452 -769.502 0
